<svg width="192" height="192" viewBox="0 0 192 192" fill="none" xmlns="http://www.w3.org/2000/svg">
<g clip-path="url(#clip0_433_1073)">
<path d="M182.553 36.8278C180.085 29.2577 174.27 20.8099 170.485 14.3094C173.365 33.0153 137.434 129.178 112.365 152.245C105.755 158.114 90.3129 149.365 73.8835 134.8C71.7167 132.88 68.4254 132.88 66.286 134.855C53.1206 147.061 34.7987 165.849 18.1774 151.202C23.2516 156.496 31.6994 165.328 31.8639 165.492C49.7744 184.198 66.5603 170.457 82.1942 157.044C94.7013 146.32 112.118 186.365 127.725 172.486C144.072 157.977 154.741 132.332 163.244 112.556C168.455 100.433 172.898 87.9809 176.546 75.3092C179.838 64.0637 186.338 48.4024 182.553 36.8278Z" fill="#ECA600"/>
<path d="M168.811 11.2926C165.493 -1.07741 49.1707 27.3928 22.1816 50.734C15.4892 56.6858 22.6205 73.362 35.4293 91.6564C37.1024 94.0427 36.691 97.2792 34.4968 99.1717C20.0148 111.651 -2.75036 126.325 14.4744 147.335C32.0557 168.784 52.1878 148.021 66.3132 134.883C68.4526 132.908 71.7165 132.881 73.9107 134.828C90.3401 149.365 105.782 158.142 112.392 152.272C139.628 127.176 179.728 15.6536 168.811 11.2926Z" fill="#F9DC4E"/>
<path d="M49.7741 167.823C51.7282 167.823 53.3123 166.239 53.3123 164.285C53.3123 162.331 51.7282 160.747 49.7741 160.747C47.82 160.747 46.2359 162.331 46.2359 164.285C46.2359 166.239 47.82 167.823 49.7741 167.823Z" fill="#ECA600"/>
<path d="M120.84 74.7609C115.519 75.0077 110.198 75.2546 104.877 75.5289C103.506 75.5837 102.409 74.4592 102.518 73.0878C103.04 66.8068 103.533 60.5532 104.054 54.2722C104.576 48.8415 99.0899 44.2336 91.7941 43.9593C84.4983 43.6576 78.9852 47.8815 79.5338 53.4494C80.0824 60.4161 80.6584 67.3553 81.2069 74.322C81.3166 75.5837 80.3292 76.7083 79.0675 76.7631C73.3625 77.0374 67.6301 77.3117 61.9251 77.5859C56.3298 77.8877 53.1481 79.9996 53.2853 82.331C53.4224 84.6898 56.7686 86.8017 62.2268 87.1583C68.2609 87.4874 74.3225 87.8166 80.3566 88.1731C81.4812 88.228 82.3863 89.1331 82.4686 90.2577C83.072 97.6358 83.648 105.014 84.2514 112.392C84.7725 117.987 88.0913 121.169 91.7941 121.004C95.4969 120.84 98.8156 117.521 99.3368 112.063C99.8853 105.233 100.461 98.3763 101.01 91.5468C101.12 90.3399 102.162 89.4074 103.396 89.4897C108.909 89.7914 114.422 90.0931 119.963 90.3948C125.393 90.7514 130.029 87.268 130.303 82.6327C130.632 77.9425 126.408 74.4317 120.84 74.7609Z" fill="white"/>
</g>
<defs>
<clipPath id="clip0_433_1073">
<rect width="175.404" height="167.147" fill="white" transform="translate(8.29803 8.2981)"/>
</clipPath>
</defs>
</svg>
